<svg xmlns="http://www.w3.org/2000/svg" id="Ebene_1" data-name="Ebene 1" version="1.1" width="629.22" height="629.22"><defs id="defs5096"><style id="style5094">.cls-1{fill:#032b74}</style></defs><g id="Ebene_2" data-name="Ebene 2" transform="translate(38.91)"><g id="Ebene_1-2" data-name="Ebene 1-2"><path class="cls-1" d="M562.09 717.44h-27.23c-21.32 0-42.64-.13-64 .1-4.59 0-6.91-1.58-9-5.61-17.1-33.49-34.43-66.86-51.69-100.27L338.33 472.5q-22.84-44.18-45.7-88.35c-.66-1.28-1.45-2.49-3.19-5.47v338h-95.12V165.92c2.43-.22 4.7-.61 7-.61 27.37 0 54.75.08 82.12-.13 4.79 0 7.41 1.33 9.67 5.77 17 33.52 34.38 66.89 51.63 100.3q36.66 71 73.34 142 23 44.52 46.15 89a5.65 5.65 0 0 0 3 3V165.84h94.94z" transform="translate(-194.32 -88.32)" id="path5100" style="fill:#032b74"/><path class="cls-1" d="M583.14 89.91h162.58l-160.9 316.93-1.68-.44z" transform="translate(-194.32 -88.32)" id="path5102" style="fill:#032b74"/><path class="cls-1" d="M285 88.32h161.79v317.91l-1.36.61z" transform="translate(-194.32 -88.32)" id="path5104" style="fill:#032b74"/></g></g></svg>